<svg xmlns="http://www.w3.org/2000/svg" viewBox="0 0 100 100" fill="none">
  <!-- Skin background -->
  <rect width="100" height="100" rx="8" fill="#FFE4D6"/>
  <!-- Ingrown hair bumps with curled hair visible -->
  <circle cx="30" cy="35" r="10" fill="#FFAB91"/>
  <path d="M25 35 Q28 30 32 33 Q35 36 32 40 Q28 43 26 38" stroke="#5D4037" stroke-width="1.5" fill="none"/>
  <circle cx="70" cy="30" r="8" fill="#FFAB91"/>
  <path d="M66 30 Q68 26 72 28 Q75 31 72 34 Q69 36 67 32" stroke="#5D4037" stroke-width="1.5" fill="none"/>
  <circle cx="50" cy="60" r="12" fill="#FF8A65"/>
  <path d="M44 60 Q48 54 54 57 Q58 62 53 67 Q47 70 45 64" stroke="#4E342E" stroke-width="2" fill="none"/>
  <circle cx="75" cy="70" r="7" fill="#FFAB91"/>
  <path d="M72 70 Q74 67 77 69 Q79 72 76 74 Q73 75 72 72" stroke="#5D4037" stroke-width="1.5" fill="none"/>
  <!-- Small dots showing hair follicles -->
  <circle cx="30" cy="35" r="2" fill="#8D6E63"/>
  <circle cx="50" cy="60" r="2.5" fill="#6D4C41"/>
</svg>