<svg xmlns="http://www.w3.org/2000/svg" viewBox="0 0 100 100" fill="none">
  <!-- Skin background with rough texture -->
  <rect width="100" height="100" rx="8" fill="#FFE4D6"/>
  <!-- Sandpaper-like tiny bumps pattern -->
  <circle cx="10" cy="10" r="2" fill="#FFCCBC"/><circle cx="18" cy="8" r="1.5" fill="#FFD7C2"/>
  <circle cx="26" cy="12" r="2" fill="#FFCCBC"/><circle cx="34" cy="9" r="1.5" fill="#FFD7C2"/>
  <circle cx="42" cy="11" r="2" fill="#FFCCBC"/><circle cx="50" cy="8" r="1.5" fill="#FFD7C2"/>
  <circle cx="58" cy="12" r="2" fill="#FFCCBC"/><circle cx="66" cy="9" r="1.5" fill="#FFD7C2"/>
  <circle cx="74" cy="11" r="2" fill="#FFCCBC"/><circle cx="82" cy="8" r="1.5" fill="#FFD7C2"/>
  <circle cx="90" cy="12" r="2" fill="#FFCCBC"/>
  <circle cx="14" cy="22" r="1.5" fill="#FFD7C2"/><circle cx="22" cy="20" r="2" fill="#FFCCBC"/>
  <circle cx="30" cy="24" r="1.5" fill="#FFD7C2"/><circle cx="38" cy="21" r="2" fill="#FFCCBC"/>
  <circle cx="46" cy="23" r="1.5" fill="#FFD7C2"/><circle cx="54" cy="20" r="2" fill="#FFCCBC"/>
  <circle cx="62" cy="24" r="1.5" fill="#FFD7C2"/><circle cx="70" cy="21" r="2" fill="#FFCCBC"/>
  <circle cx="78" cy="23" r="1.5" fill="#FFD7C2"/><circle cx="86" cy="20" r="2" fill="#FFCCBC"/>
  <circle cx="10" cy="34" r="2" fill="#FFCCBC"/><circle cx="18" cy="32" r="1.5" fill="#FFD7C2"/>
  <circle cx="26" cy="36" r="2" fill="#FFCCBC"/><circle cx="34" cy="33" r="1.5" fill="#FFD7C2"/>
  <circle cx="42" cy="35" r="2" fill="#FFCCBC"/><circle cx="50" cy="32" r="1.5" fill="#FFD7C2"/>
  <circle cx="58" cy="36" r="2" fill="#FFCCBC"/><circle cx="66" cy="33" r="1.5" fill="#FFD7C2"/>
  <circle cx="74" cy="35" r="2" fill="#FFCCBC"/><circle cx="82" cy="32" r="1.5" fill="#FFD7C2"/>
  <circle cx="90" cy="36" r="2" fill="#FFCCBC"/>
  <circle cx="14" cy="46" r="1.5" fill="#FFD7C2"/><circle cx="22" cy="44" r="2" fill="#FFCCBC"/>
  <circle cx="30" cy="48" r="1.5" fill="#FFD7C2"/><circle cx="38" cy="45" r="2" fill="#FFCCBC"/>
  <circle cx="46" cy="47" r="1.5" fill="#FFD7C2"/><circle cx="54" cy="44" r="2" fill="#FFCCBC"/>
  <circle cx="62" cy="48" r="1.5" fill="#FFD7C2"/><circle cx="70" cy="45" r="2" fill="#FFCCBC"/>
  <circle cx="78" cy="47" r="1.5" fill="#FFD7C2"/><circle cx="86" cy="44" r="2" fill="#FFCCBC"/>
  <circle cx="10" cy="58" r="2" fill="#FFCCBC"/><circle cx="18" cy="56" r="1.5" fill="#FFD7C2"/>
  <circle cx="26" cy="60" r="2" fill="#FFCCBC"/><circle cx="34" cy="57" r="1.5" fill="#FFD7C2"/>
  <circle cx="42" cy="59" r="2" fill="#FFCCBC"/><circle cx="50" cy="56" r="1.5" fill="#FFD7C2"/>
  <circle cx="58" cy="60" r="2" fill="#FFCCBC"/><circle cx="66" cy="57" r="1.5" fill="#FFD7C2"/>
  <circle cx="74" cy="59" r="2" fill="#FFCCBC"/><circle cx="82" cy="56" r="1.5" fill="#FFD7C2"/>
  <circle cx="90" cy="60" r="2" fill="#FFCCBC"/>
  <circle cx="14" cy="70" r="1.5" fill="#FFD7C2"/><circle cx="22" cy="68" r="2" fill="#FFCCBC"/>
  <circle cx="30" cy="72" r="1.5" fill="#FFD7C2"/><circle cx="38" cy="69" r="2" fill="#FFCCBC"/>
  <circle cx="46" cy="71" r="1.5" fill="#FFD7C2"/><circle cx="54" cy="68" r="2" fill="#FFCCBC"/>
  <circle cx="62" cy="72" r="1.5" fill="#FFD7C2"/><circle cx="70" cy="69" r="2" fill="#FFCCBC"/>
  <circle cx="78" cy="71" r="1.5" fill="#FFD7C2"/><circle cx="86" cy="68" r="2" fill="#FFCCBC"/>
  <circle cx="10" cy="82" r="2" fill="#FFCCBC"/><circle cx="18" cy="80" r="1.5" fill="#FFD7C2"/>
  <circle cx="26" cy="84" r="2" fill="#FFCCBC"/><circle cx="34" cy="81" r="1.5" fill="#FFD7C2"/>
  <circle cx="42" cy="83" r="2" fill="#FFCCBC"/><circle cx="50" cy="80" r="1.5" fill="#FFD7C2"/>
  <circle cx="58" cy="84" r="2" fill="#FFCCBC"/><circle cx="66" cy="81" r="1.5" fill="#FFD7C2"/>
  <circle cx="74" cy="83" r="2" fill="#FFCCBC"/><circle cx="82" cy="80" r="1.5" fill="#FFD7C2"/>
  <circle cx="90" cy="84" r="2" fill="#FFCCBC"/>
  <circle cx="14" cy="94" r="1.5" fill="#FFD7C2"/><circle cx="22" cy="92" r="2" fill="#FFCCBC"/>
  <circle cx="30" cy="96" r="1.5" fill="#FFD7C2"/><circle cx="38" cy="93" r="2" fill="#FFCCBC"/>
  <circle cx="46" cy="95" r="1.5" fill="#FFD7C2"/><circle cx="54" cy="92" r="2" fill="#FFCCBC"/>
  <circle cx="62" cy="96" r="1.5" fill="#FFD7C2"/><circle cx="70" cy="93" r="2" fill="#FFCCBC"/>
  <circle cx="78" cy="95" r="1.5" fill="#FFD7C2"/><circle cx="86" cy="92" r="2" fill="#FFCCBC"/>
</svg>