<svg xmlns="http://www.w3.org/2000/svg" viewBox="0 0 100 100" fill="none">
  <!-- Skin background -->
  <rect width="100" height="100" rx="8" fill="#FFE4D6"/>
  <!-- Uniform small bumps in regular pattern -->
  <circle cx="20" cy="20" r="4" fill="#FFCCBC"/>
  <circle cx="40" cy="20" r="4" fill="#FFCCBC"/>
  <circle cx="60" cy="20" r="4" fill="#FFCCBC"/>
  <circle cx="80" cy="20" r="4" fill="#FFCCBC"/>
  <circle cx="30" cy="35" r="4" fill="#FFCCBC"/>
  <circle cx="50" cy="35" r="4" fill="#FFCCBC"/>
  <circle cx="70" cy="35" r="4" fill="#FFCCBC"/>
  <circle cx="20" cy="50" r="4" fill="#FFCCBC"/>
  <circle cx="40" cy="50" r="4" fill="#FFCCBC"/>
  <circle cx="60" cy="50" r="4" fill="#FFCCBC"/>
  <circle cx="80" cy="50" r="4" fill="#FFCCBC"/>
  <circle cx="30" cy="65" r="4" fill="#FFCCBC"/>
  <circle cx="50" cy="65" r="4" fill="#FFCCBC"/>
  <circle cx="70" cy="65" r="4" fill="#FFCCBC"/>
  <circle cx="20" cy="80" r="4" fill="#FFCCBC"/>
  <circle cx="40" cy="80" r="4" fill="#FFCCBC"/>
  <circle cx="60" cy="80" r="4" fill="#FFCCBC"/>
  <circle cx="80" cy="80" r="4" fill="#FFCCBC"/>
  <!-- Itch lines -->
  <path d="M88 10 L95 5 M92 15 L98 12" stroke="#FF8A65" stroke-width="1.5" stroke-linecap="round" opacity="0.7"/>
</svg>