<svg xmlns="http://www.w3.org/2000/svg" viewBox="0 0 100 100" fill="none">
  <!-- Skin background -->
  <rect width="100" height="100" rx="8" fill="#FFE4D6"/>
  <!-- Milia - tiny hard white bumps -->
  <!-- Bump cluster 1 - around eye area representation -->
  <circle cx="20" cy="25" r="3" fill="#FEFEFE"/>
  <circle cx="20" cy="25" r="2.5" fill="#F8F8F5"/>
  <circle cx="19" cy="24" r="0.8" fill="#FFFFFF"/>

  <circle cx="28" cy="22" r="2.5" fill="#FEFEFE"/>
  <circle cx="28" cy="22" r="2" fill="#F8F8F5"/>
  <circle cx="27" cy="21" r="0.6" fill="#FFFFFF"/>

  <circle cx="35" cy="28" r="2" fill="#FEFEFE"/>
  <circle cx="35" cy="28" r="1.6" fill="#F8F8F5"/>
  <circle cx="34.5" cy="27.5" r="0.5" fill="#FFFFFF"/>

  <!-- Bump cluster 2 -->
  <circle cx="60" cy="30" r="3.5" fill="#FEFEFE"/>
  <circle cx="60" cy="30" r="3" fill="#F8F8F5"/>
  <circle cx="59" cy="29" r="1" fill="#FFFFFF"/>

  <circle cx="70" cy="25" r="2.5" fill="#FEFEFE"/>
  <circle cx="70" cy="25" r="2" fill="#F8F8F5"/>
  <circle cx="69" cy="24" r="0.7" fill="#FFFFFF"/>

  <circle cx="78" cy="32" r="2" fill="#FEFEFE"/>
  <circle cx="78" cy="32" r="1.6" fill="#F8F8F5"/>
  <circle cx="77.5" cy="31.5" r="0.5" fill="#FFFFFF"/>

  <!-- Bump cluster 3 - cheek area -->
  <circle cx="25" cy="55" r="3" fill="#FEFEFE"/>
  <circle cx="25" cy="55" r="2.5" fill="#F8F8F5"/>
  <circle cx="24" cy="54" r="0.8" fill="#FFFFFF"/>

  <circle cx="35" cy="50" r="2.5" fill="#FEFEFE"/>
  <circle cx="35" cy="50" r="2" fill="#F8F8F5"/>
  <circle cx="34" cy="49" r="0.6" fill="#FFFFFF"/>

  <circle cx="40" cy="60" r="2" fill="#FEFEFE"/>
  <circle cx="40" cy="60" r="1.6" fill="#F8F8F5"/>
  <circle cx="39.5" cy="59.5" r="0.5" fill="#FFFFFF"/>

  <!-- Bump cluster 4 -->
  <circle cx="65" cy="55" r="3" fill="#FEFEFE"/>
  <circle cx="65" cy="55" r="2.5" fill="#F8F8F5"/>
  <circle cx="64" cy="54" r="0.8" fill="#FFFFFF"/>

  <circle cx="75" cy="58" r="2.5" fill="#FEFEFE"/>
  <circle cx="75" cy="58" r="2" fill="#F8F8F5"/>
  <circle cx="74" cy="57" r="0.7" fill="#FFFFFF"/>

  <!-- Scattered individual bumps -->
  <circle cx="50" cy="75" r="2.5" fill="#FEFEFE"/>
  <circle cx="50" cy="75" r="2" fill="#F8F8F5"/>
  <circle cx="49" cy="74" r="0.6" fill="#FFFFFF"/>

  <circle cx="15" cy="80" r="2" fill="#FEFEFE"/>
  <circle cx="15" cy="80" r="1.6" fill="#F8F8F5"/>
  <circle cx="14.5" cy="79.5" r="0.5" fill="#FFFFFF"/>

  <circle cx="85" cy="75" r="2" fill="#FEFEFE"/>
  <circle cx="85" cy="75" r="1.6" fill="#F8F8F5"/>
  <circle cx="84.5" cy="74.5" r="0.5" fill="#FFFFFF"/>

  <!-- Subtle shadows under bumps -->
  <ellipse cx="20" cy="27" rx="2.5" ry="0.8" fill="#E8D4C8" opacity="0.4"/>
  <ellipse cx="60" cy="32.5" rx="3" ry="0.8" fill="#E8D4C8" opacity="0.4"/>
  <ellipse cx="25" cy="57" rx="2.5" ry="0.8" fill="#E8D4C8" opacity="0.4"/>
  <ellipse cx="65" cy="57" rx="2.5" ry="0.8" fill="#E8D4C8" opacity="0.4"/>
</svg>
