<svg xmlns="http://www.w3.org/2000/svg" viewBox="0 0 100 100" fill="none">
  <!-- Skin background -->
  <rect width="100" height="100" rx="8" fill="#FFE4D6"/>
  <!-- Sebaceous hyperplasia - yellowish bumps with central depression -->
  <!-- Bump 1 -->
  <ellipse cx="25" cy="30" rx="10" ry="8" fill="#F5D78E"/>
  <ellipse cx="25" cy="30" rx="8" ry="6" fill="#E8C56B"/>
  <ellipse cx="25" cy="29" rx="3" ry="2" fill="#D4A84B"/>
  <!-- Central dip indicator -->
  <path d="M23 28 Q25 31 27 28" stroke="#C49A3B" stroke-width="1" fill="none"/>

  <!-- Bump 2 -->
  <ellipse cx="65" cy="25" rx="8" ry="6" fill="#F5D78E"/>
  <ellipse cx="65" cy="25" rx="6" ry="4.5" fill="#E8C56B"/>
  <ellipse cx="65" cy="24" rx="2.5" ry="1.5" fill="#D4A84B"/>
  <path d="M63 23 Q65 26 67 23" stroke="#C49A3B" stroke-width="1" fill="none"/>

  <!-- Bump 3 -->
  <ellipse cx="45" cy="55" rx="12" ry="9" fill="#F5D78E"/>
  <ellipse cx="45" cy="55" rx="9" ry="7" fill="#E8C56B"/>
  <ellipse cx="45" cy="54" rx="4" ry="2.5" fill="#D4A84B"/>
  <path d="M42 52 Q45 56 48 52" stroke="#C49A3B" stroke-width="1.5" fill="none"/>

  <!-- Bump 4 -->
  <ellipse cx="75" cy="60" rx="9" ry="7" fill="#F5D78E"/>
  <ellipse cx="75" cy="60" rx="7" ry="5" fill="#E8C56B"/>
  <ellipse cx="75" cy="59" rx="3" ry="2" fill="#D4A84B"/>
  <path d="M73 58 Q75 61 77 58" stroke="#C49A3B" stroke-width="1" fill="none"/>

  <!-- Bump 5 -->
  <ellipse cx="20" cy="70" rx="7" ry="5.5" fill="#F5D78E"/>
  <ellipse cx="20" cy="70" rx="5.5" ry="4" fill="#E8C56B"/>
  <ellipse cx="20" cy="69" rx="2" ry="1.5" fill="#D4A84B"/>
  <path d="M18.5 68 Q20 70.5 21.5 68" stroke="#C49A3B" stroke-width="0.8" fill="none"/>

  <!-- Small highlight reflections -->
  <ellipse cx="22" cy="27" rx="2" ry="1" fill="#FFF8E1" opacity="0.6"/>
  <ellipse cx="62" cy="22" rx="1.5" ry="0.8" fill="#FFF8E1" opacity="0.6"/>
  <ellipse cx="42" cy="52" rx="2.5" ry="1.2" fill="#FFF8E1" opacity="0.6"/>
  <ellipse cx="72" cy="57" rx="2" ry="1" fill="#FFF8E1" opacity="0.6"/>
</svg>
