<svg xmlns="http://www.w3.org/2000/svg" viewBox="0 0 320 160" fill="none">
  <!-- Background -->
  <rect width="320" height="160" fill="#f8f9fa"/>

  <!-- Before Section -->
  <rect x="10" y="10" width="140" height="140" rx="12" fill="#fff" stroke="#e0e0e0"/>
  <text x="80" y="30" font-family="Arial, sans-serif" font-size="10" fill="#666" text-anchor="middle" font-weight="600">BEFORE</text>

  <!-- Before - Face with uniform small itchy bumps -->
  <ellipse cx="80" cy="85" rx="45" ry="55" fill="#FFE4D6"/>
  <!-- Uniform tiny bumps pattern (fungal acne characteristic) -->
  <circle cx="55" cy="65" r="2.5" fill="#FFAB91"/>
  <circle cx="62" cy="68" r="2.5" fill="#FFAB91"/>
  <circle cx="69" cy="65" r="2.5" fill="#FFAB91"/>
  <circle cx="76" cy="68" r="2.5" fill="#FFAB91"/>
  <circle cx="83" cy="65" r="2.5" fill="#FFAB91"/>
  <circle cx="90" cy="68" r="2.5" fill="#FFAB91"/>
  <circle cx="97" cy="65" r="2.5" fill="#FFAB91"/>
  <circle cx="55" cy="75" r="2.5" fill="#FFAB91"/>
  <circle cx="62" cy="78" r="2.5" fill="#FFAB91"/>
  <circle cx="69" cy="75" r="2.5" fill="#FFAB91"/>
  <circle cx="76" cy="78" r="2.5" fill="#FFAB91"/>
  <circle cx="83" cy="75" r="2.5" fill="#FFAB91"/>
  <circle cx="90" cy="78" r="2.5" fill="#FFAB91"/>
  <circle cx="97" cy="75" r="2.5" fill="#FFAB91"/>
  <circle cx="58" cy="88" r="2.5" fill="#FFAB91"/>
  <circle cx="65" cy="91" r="2.5" fill="#FFAB91"/>
  <circle cx="72" cy="88" r="2.5" fill="#FFAB91"/>
  <circle cx="79" cy="91" r="2.5" fill="#FFAB91"/>
  <circle cx="86" cy="88" r="2.5" fill="#FFAB91"/>
  <circle cx="93" cy="91" r="2.5" fill="#FFAB91"/>

  <!-- After Section -->
  <rect x="170" y="10" width="140" height="140" rx="12" fill="#fff" stroke="#e0e0e0"/>
  <text x="240" y="30" font-family="Arial, sans-serif" font-size="10" fill="#4CAF50" text-anchor="middle" font-weight="600">AFTER</text>

  <!-- After - Clear smooth skin -->
  <ellipse cx="240" cy="85" rx="45" ry="55" fill="#FFE4D6"/>
  <ellipse cx="240" cy="85" rx="40" ry="50" fill="#FFEEE6" opacity="0.5"/>
  <ellipse cx="225" cy="75" rx="8" ry="6" fill="#FFF5F0" opacity="0.6"/>
  <ellipse cx="255" cy="80" rx="6" ry="5" fill="#FFF5F0" opacity="0.6"/>

  <!-- Arrow -->
  <path d="M155 80 L165 80 M162 75 L167 80 L162 85" stroke="#4CAF50" stroke-width="2" fill="none"/>
</svg>