<svg xmlns="http://www.w3.org/2000/svg" viewBox="0 0 320 160" fill="none">
  <!-- Background -->
  <rect width="320" height="160" fill="#f8f9fa"/>

  <!-- Before Section -->
  <rect x="10" y="10" width="140" height="140" rx="12" fill="#fff" stroke="#e0e0e0"/>
  <text x="80" y="30" font-family="Arial, sans-serif" font-size="10" fill="#666" text-anchor="middle" font-weight="600">BEFORE</text>

  <!-- Before - Face with severe sudden onset nodules -->
  <ellipse cx="80" cy="85" rx="45" ry="55" fill="#FFE4D6"/>
  <!-- Intense redness base -->
  <ellipse cx="80" cy="85" rx="40" ry="48" fill="#FFCDD2" opacity="0.5"/>
  <!-- Severe nodules and cysts (sudden onset) -->
  <circle cx="55" cy="65" r="8" fill="#B71C1C"/>
  <circle cx="55" cy="64" r="4" fill="#C62828"/>
  <circle cx="75" cy="70" r="10" fill="#C62828"/>
  <circle cx="75" cy="69" r="5" fill="#D32F2F"/>
  <circle cx="100" cy="68" r="9" fill="#B71C1C"/>
  <circle cx="100" cy="67" r="4.5" fill="#C62828"/>
  <circle cx="50" cy="90" r="8" fill="#C62828"/>
  <circle cx="50" cy="89" r="4" fill="#D32F2F"/>
  <circle cx="70" cy="95" r="11" fill="#B71C1C"/>
  <circle cx="70" cy="94" r="5.5" fill="#C62828"/>
  <circle cx="95" cy="92" r="9" fill="#C62828"/>
  <circle cx="95" cy="91" r="4.5" fill="#D32F2F"/>
  <circle cx="110" cy="85" r="7" fill="#B71C1C"/>
  <circle cx="60" cy="115" r="8" fill="#C62828"/>
  <circle cx="85" cy="118" r="9" fill="#B71C1C"/>
  <circle cx="105" cy="110" r="7" fill="#C62828"/>

  <!-- After Section -->
  <rect x="170" y="10" width="140" height="140" rx="12" fill="#fff" stroke="#e0e0e0"/>
  <text x="240" y="30" font-family="Arial, sans-serif" font-size="10" fill="#4CAF50" text-anchor="middle" font-weight="600">AFTER</text>

  <!-- After - Healed with proper treatment -->
  <ellipse cx="240" cy="85" rx="45" ry="55" fill="#FFE4D6"/>
  <ellipse cx="240" cy="85" rx="40" ry="50" fill="#FFEEE6" opacity="0.5"/>
  <ellipse cx="225" cy="75" rx="8" ry="6" fill="#FFF5F0" opacity="0.6"/>
  <ellipse cx="255" cy="80" rx="6" ry="5" fill="#FFF5F0" opacity="0.6"/>

  <!-- Arrow -->
  <path d="M155 80 L165 80 M162 75 L167 80 L162 85" stroke="#4CAF50" stroke-width="2" fill="none"/>
</svg>