<svg xmlns="http://www.w3.org/2000/svg" viewBox="0 0 320 160" fill="none">
  <!-- Background -->
  <rect width="320" height="160" fill="#f8f9fa"/>

  <!-- Before Section -->
  <rect x="10" y="10" width="140" height="140" rx="12" fill="#fff" stroke="#e0e0e0"/>
  <text x="80" y="30" font-family="Arial, sans-serif" font-size="10" fill="#666" text-anchor="middle" font-weight="600">BEFORE</text>

  <!-- Before - Face/neck with razor burn irritation -->
  <ellipse cx="80" cy="85" rx="45" ry="55" fill="#FFE4D6"/>
  <!-- Razor burn - red irritated streaks -->
  <rect x="50" y="90" width="60" height="45" rx="5" fill="#FFCDD2" opacity="0.6"/>
  <!-- Angry red irritation lines -->
  <line x1="55" y1="95" x2="100" y2="95" stroke="#EF5350" stroke-width="2" opacity="0.7"/>
  <line x1="55" y1="102" x2="100" y2="102" stroke="#EF5350" stroke-width="2" opacity="0.7"/>
  <line x1="55" y1="109" x2="100" y2="109" stroke="#EF5350" stroke-width="2" opacity="0.7"/>
  <line x1="55" y1="116" x2="100" y2="116" stroke="#EF5350" stroke-width="2" opacity="0.7"/>
  <line x1="55" y1="123" x2="100" y2="123" stroke="#EF5350" stroke-width="2" opacity="0.7"/>
  <!-- Small irritation bumps -->
  <circle cx="60" cy="98" r="2" fill="#E57373"/>
  <circle cx="75" cy="105" r="2" fill="#E57373"/>
  <circle cx="90" cy="100" r="2" fill="#E57373"/>
  <circle cx="68" cy="115" r="2" fill="#E57373"/>
  <circle cx="85" cy="120" r="2" fill="#E57373"/>

  <!-- After Section -->
  <rect x="170" y="10" width="140" height="140" rx="12" fill="#fff" stroke="#e0e0e0"/>
  <text x="240" y="30" font-family="Arial, sans-serif" font-size="10" fill="#4CAF50" text-anchor="middle" font-weight="600">AFTER</text>

  <!-- After - Smooth calm skin -->
  <ellipse cx="240" cy="85" rx="45" ry="55" fill="#FFE4D6"/>
  <ellipse cx="240" cy="85" rx="40" ry="50" fill="#FFEEE6" opacity="0.5"/>
  <ellipse cx="225" cy="75" rx="8" ry="6" fill="#FFF5F0" opacity="0.6"/>
  <ellipse cx="255" cy="80" rx="6" ry="5" fill="#FFF5F0" opacity="0.6"/>

  <!-- Arrow -->
  <path d="M155 80 L165 80 M162 75 L167 80 L162 85" stroke="#4CAF50" stroke-width="2" fill="none"/>
</svg>